<svg width="214" height="28" viewBox="0 0 214 28" fill="none" xmlns="http://www.w3.org/2000/svg">
<path d="M9.224 19.728C16.184 19.68 21.944 19.56 26.504 19.368C26.192 20.592 26 21.768 25.928 22.896C25.856 24.024 25.82 25.392 25.82 27H0.44C0.632 22.344 0.728 17.988 0.728 13.932C0.728 9.876 0.632 5.52 0.44 0.864H9.224V19.728ZM37.8696 20.412C46.9896 20.364 53.6016 20.232 57.7056 20.016C57.5376 21 57.4296 22.02 57.3816 23.076C57.3576 24.108 57.3456 25.416 57.3456 27H29.3736C29.5656 22.344 29.6616 17.988 29.6616 13.932C29.6616 9.876 29.5656 5.52 29.3736 0.864H57.3456V7.38H37.8696V10.836C39.0216 10.86 40.7256 10.872 42.9816 10.872C46.7976 10.872 50.7456 10.8 54.8256 10.656V16.848C50.7456 16.704 46.7976 16.632 42.9816 16.632C40.7256 16.632 39.0216 16.644 37.8696 16.668V20.412ZM81.1638 27C80.7078 25.632 80.0958 23.916 79.3278 21.852H67.8438L66.0438 27H57.0078L67.0878 0.864H80.3358L90.4878 27H81.1638ZM77.2758 16.236C76.3638 13.716 75.4278 11.196 74.4678 8.676L73.6038 6.336C72.7638 8.52 71.5278 11.82 69.8958 16.236H77.2758ZM121.317 9.576C121.317 11.664 120.801 13.428 119.769 14.868C118.761 16.308 117.021 17.352 114.549 18C114.837 18.384 115.041 18.684 115.161 18.9L120.993 27H111.201C110.145 25.032 108.477 22.248 106.197 18.648H100.905V27H92.4088C92.6008 22.344 92.6968 17.988 92.6968 13.932C92.6968 9.876 92.6008 5.52 92.4088 0.864H100.905V0.899999H108.285C113.133 0.899999 116.517 1.68 118.437 3.24C120.357 4.8 121.317 6.912 121.317 9.576ZM100.905 7.812V11.916H105.765C107.805 11.916 109.341 11.856 110.373 11.736C111.429 11.592 112.161 11.376 112.569 11.088C112.977 10.8 113.181 10.38 113.181 9.828C113.181 9.3 112.989 8.892 112.605 8.604C112.221 8.316 111.501 8.112 110.445 7.992C109.389 7.872 107.829 7.812 105.765 7.812H100.905ZM154.394 0.899999C154.226 4.956 154.142 9.3 154.142 13.932C154.142 18.588 154.226 22.944 154.394 27H141.506L132.794 7.344L133.442 27H124.19C124.382 22.344 124.478 17.988 124.478 13.932C124.478 9.9 124.382 5.556 124.19 0.899999H137.438L146.186 21.096L145.574 0.899999H154.394ZM178.188 8.028C175.332 7.884 173.22 7.8 171.852 7.776V20.088C173.244 20.064 175.356 19.98 178.188 19.836V27H157.272V19.836C160.032 19.98 162.132 20.064 163.572 20.088V7.776C162.132 7.8 160.032 7.884 157.272 8.028V0.864H178.188V8.028ZM197.093 27.36C191.597 27.36 187.553 26.172 184.961 23.796C182.369 21.396 181.073 18.036 181.073 13.716C181.073 9.444 182.357 6.108 184.925 3.708C187.517 1.308 191.573 0.107999 197.093 0.107999C202.637 0.107999 206.693 1.308 209.261 3.708C211.853 6.108 213.149 9.444 213.149 13.716C213.149 18.06 211.865 21.42 209.297 23.796C206.729 26.172 202.661 27.36 197.093 27.36ZM197.093 20.016C199.757 20.016 201.677 19.512 202.853 18.504C204.029 17.472 204.617 15.876 204.617 13.716C204.617 11.604 204.029 10.032 202.853 9C201.677 7.968 199.757 7.452 197.093 7.452C194.453 7.452 192.545 7.968 191.369 9C190.193 10.032 189.605 11.604 189.605 13.716C189.605 15.852 190.193 17.436 191.369 18.468C192.545 19.5 194.453 20.016 197.093 20.016Z" fill="black"/>
</svg>
